<?xml version="1.0" encoding="UTF-8" standalone="no"?>
<!-- Created with Inkscape (http://www.inkscape.org/) -->

<svg
   xmlns:dc="http://purl.org/dc/elements/1.1/"
   xmlns:cc="http://creativecommons.org/ns#"
   xmlns:rdf="http://www.w3.org/1999/02/22-rdf-syntax-ns#"
   xmlns:svg="http://www.w3.org/2000/svg"
   xmlns="http://www.w3.org/2000/svg"
   xmlns:sodipodi="http://sodipodi.sourceforge.net/DTD/sodipodi-0.dtd"
   xmlns:inkscape="http://www.inkscape.org/namespaces/inkscape"
   width="299"
   height="64"
   viewBox="0 0 79.110415 16.933334"
   version="1.1"
   id="svg8"
   inkscape:version="0.92.4 (5da689c313, 2019-01-14)"
   sodipodi:docname="logo.svg">
  <defs
     id="defs2" />
  <sodipodi:namedview
     id="base"
     pagecolor="#ffffff"
     bordercolor="#666666"
     borderopacity="1.0"
     inkscape:pageopacity="0.0"
     inkscape:pageshadow="2"
     inkscape:zoom="2.8284272"
     inkscape:cx="83.113696"
     inkscape:cy="24.781583"
     inkscape:document-units="mm"
     inkscape:current-layer="layer1"
     showgrid="false"
     units="px"
     inkscape:window-width="1920"
     inkscape:window-height="1017"
     inkscape:window-x="-8"
     inkscape:window-y="-8"
     inkscape:window-maximized="1" />
  <metadata
     id="metadata5">
    <rdf:RDF>
      <cc:Work
         rdf:about="">
        <dc:format>image/svg+xml</dc:format>
        <dc:type
           rdf:resource="http://purl.org/dc/dcmitype/StillImage" />
        <dc:title />
      </cc:Work>
    </rdf:RDF>
  </metadata>
  <g
     inkscape:label="Camada 1"
     inkscape:groupmode="layer"
     id="layer1"
     transform="translate(0,-280.06665)">
    <path
       inkscape:connector-curvature="0"
       id="path4585"
       style="font-style:normal;font-variant:normal;font-weight:normal;font-stretch:normal;font-size:10.58333302px;line-height:1.25;font-family:'Open Sans Light';-inkscape-font-specification:'Open Sans Light, ';letter-spacing:0px;word-spacing:0px;fill:#535b61;fill-opacity:1;stroke:none;stroke-width:0.26458332"
       d="m 4.4001919,281.43281 q -1.4211018,0 -2.2375894,0.90951 -0.8164876,0.9095 -0.8164876,2.4908 0,1.61747 0.7699788,2.51147 0.7699788,0.89401 2.201416,0.89401 0.9508463,0 1.7466633,-0.24288 v 0.46509 q -0.7493082,0.26355 -1.8706868,0.26355 -1.591634,0 -2.5063069,-1.02837 -0.91467279,-1.02836 -0.91467279,-2.87321 0,-1.15238 0.43408199,-2.03088 0.4392497,-0.8785 1.2557373,-1.35392 0.8216552,-0.48059 1.9068603,-0.48059 1.1058756,0 1.9792073,0.41341 L 6.13652,281.84622 q -0.8268229,-0.41341 -1.7363281,-0.41341 z" />
    <path
       inkscape:connector-curvature="0"
       id="path4587"
       style="font-style:normal;font-variant:normal;font-weight:normal;font-stretch:normal;font-size:10.58333302px;line-height:1.25;font-family:'Open Sans Light';-inkscape-font-specification:'Open Sans Light, ';letter-spacing:0px;word-spacing:0px;fill:#535b61;fill-opacity:1;stroke:none;stroke-width:0.26458332"
       d="M 8.2759244,285.32921 V 288.621 H 7.7488249 v -7.55509 h 1.7983397 q 1.4055994,0 2.0773924,0.52193 0.671794,0.51676 0.671794,1.56063 0,0.75964 -0.403076,1.28157 -0.397909,0.52194 -1.214397,0.74931 l 2.051555,3.44165 H 12.09998 l -1.948201,-3.29179 z m 0,-0.45475 h 1.4417725 q 0.9560141,0 1.4831131,-0.42375 0.5271,-0.42891 0.5271,-1.2609 0,-0.863 -0.516764,-1.25574 -0.516765,-0.39274 -1.6846519,-0.39274 H 8.2759244 Z" />
    <path
       inkscape:connector-curvature="0"
       id="path4589"
       style="font-style:normal;font-variant:normal;font-weight:normal;font-stretch:normal;font-size:10.58333302px;line-height:1.25;font-family:'Open Sans Light';-inkscape-font-specification:'Open Sans Light, ';letter-spacing:0px;word-spacing:0px;fill:#535b61;fill-opacity:1;stroke:none;stroke-width:0.26458332"
       d="m 18.161625,288.621 h -4.128947 v -7.55509 h 4.128947 v 0.48576 h -3.601847 v 2.8577 h 3.400309 v 0.48576 h -3.400309 v 3.24011 h 3.601847 z" />
    <path
       inkscape:connector-curvature="0"
       id="path4591"
       style="font-style:normal;font-variant:normal;font-weight:normal;font-stretch:normal;font-size:10.58333302px;line-height:1.25;font-family:'Open Sans Light';-inkscape-font-specification:'Open Sans Light, ';letter-spacing:0px;word-spacing:0px;fill:#535b61;fill-opacity:1;stroke:none;stroke-width:0.26458332"
       d="m 23.520471,285.9545 h -3.06958 l -1.0542,2.6665 h -0.583943 l 3.038574,-7.5861 h 0.335897 l 2.976562,7.5861 h -0.594279 z m -2.878378,-0.47542 h 2.702678 l -1.028361,-2.72335 q -0.129191,-0.3204 -0.310059,-0.88884 -0.139526,0.4961 -0.304891,0.89917 z" />
    <path
       inkscape:connector-curvature="0"
       id="path4593"
       style="font-style:normal;font-variant:normal;font-weight:normal;font-stretch:normal;font-size:10.58333302px;line-height:1.25;font-family:'Open Sans Light';-inkscape-font-specification:'Open Sans Light, ';letter-spacing:0px;word-spacing:0px;fill:#535b61;fill-opacity:1;stroke:none;stroke-width:0.26458332"
       d="m 28.197189,288.621 h -0.532267 v -7.059 h -2.454631 v -0.49609 h 5.441529 v 0.49609 h -2.454631 z" />
    <path
       inkscape:connector-curvature="0"
       id="path4595"
       style="font-style:normal;font-variant:normal;font-weight:normal;font-stretch:normal;font-size:10.58333302px;line-height:1.25;font-family:'Open Sans Light';-inkscape-font-specification:'Open Sans Light, ';letter-spacing:0px;word-spacing:0px;fill:#535b61;fill-opacity:1;stroke:none;stroke-width:0.26458332"
       d="m 31.76803,288.621 v -7.55509 h 0.5271 v 7.55509 z" />
    <path
       inkscape:connector-curvature="0"
       id="path4597"
       style="font-style:normal;font-variant:normal;font-weight:normal;font-stretch:normal;font-size:10.58333302px;line-height:1.25;font-family:'Open Sans Light';-inkscape-font-specification:'Open Sans Light, ';letter-spacing:0px;word-spacing:0px;fill:#535b61;fill-opacity:1;stroke:none;stroke-width:0.26458332"
       d="m 38.899376,281.06591 h 0.573608 l -2.826701,7.55509 h -0.465088 l -2.816365,-7.55509 h 0.563273 l 1.901693,5.1418 q 0.434082,1.16272 0.583943,1.74667 0.103353,-0.38758 0.408244,-1.20406 z" />
    <path
       inkscape:connector-curvature="0"
       id="path4599"
       style="font-style:normal;font-variant:normal;font-weight:normal;font-stretch:normal;font-size:10.58333302px;line-height:1.25;font-family:'Open Sans Light';-inkscape-font-specification:'Open Sans Light, ';letter-spacing:0px;word-spacing:0px;fill:#535b61;fill-opacity:1;stroke:none;stroke-width:0.26458332"
       d="m 44.681971,288.621 h -4.128947 v -7.55509 h 4.128947 v 0.48576 h -3.601847 v 2.8577 h 3.400309 v 0.48576 h -3.400309 v 3.24011 h 3.601847 z" />
    <path
       inkscape:connector-curvature="0"
       id="path4601"
       style="font-style:normal;font-variant:normal;font-weight:normal;font-stretch:normal;font-size:10.58333302px;line-height:1.25;font-family:'Open Sans';-inkscape-font-specification:'Open Sans';letter-spacing:0px;word-spacing:0px;fill:#25282b;fill-opacity:1;stroke:none;stroke-width:0.26458332"
       d="m 52.107872,288.621 h -0.8785 v -3.55534 h -3.979085 v 3.55534 h -0.878499 v -7.55509 h 0.878499 v 3.21427 h 3.979085 v -3.21427 h 0.8785 z" />
    <path
       inkscape:connector-curvature="0"
       id="path4603"
       style="font-style:normal;font-variant:normal;font-weight:normal;font-stretch:normal;font-size:10.58333302px;line-height:1.25;font-family:'Open Sans';-inkscape-font-specification:'Open Sans';letter-spacing:0px;word-spacing:0px;fill:#25282b;fill-opacity:1;stroke:none;stroke-width:0.26458332"
       d="m 60.743003,284.83312 q 0,1.81384 -0.91984,2.85254 -0.914673,1.0387 -2.547648,1.0387 -1.669149,0 -2.578654,-1.01803 -0.904338,-1.02319 -0.904338,-2.88355 0,-1.84484 0.909506,-2.8577 0.909505,-1.01803 2.583821,-1.01803 1.627808,0 2.542481,1.03353 0.914672,1.03353 0.914672,2.85254 z m -6.020304,0 q 0,1.53479 0.651123,2.33061 0.656291,0.79065 1.901693,0.79065 1.255737,0 1.896525,-0.79065 0.640788,-0.79065 0.640788,-2.33061 0,-1.52445 -0.640788,-2.30994 -0.63562,-0.79065 -1.88619,-0.79065 -1.255737,0 -1.912028,0.79582 -0.651123,0.79065 -0.651123,2.30477 z" />
    <path
       inkscape:connector-curvature="0"
       id="path4605"
       style="font-style:normal;font-variant:normal;font-weight:normal;font-stretch:normal;font-size:10.58333302px;line-height:1.25;font-family:'Open Sans';-inkscape-font-specification:'Open Sans';letter-spacing:0px;word-spacing:0px;fill:#25282b;fill-opacity:1;stroke:none;stroke-width:0.26458332"
       d="m 65.776288,288.621 -2.563151,-6.69726 h -0.04134 q 0.07235,0.79581 0.07235,1.89135 v 4.80591 h -0.81132 v -7.55509 h 1.322917 l 2.392618,6.23218 h 0.04134 l 2.41329,-6.23218 h 1.312581 v 7.55509 h -0.878499 v -4.86792 q 0,-0.83716 0.07235,-1.81901 h -0.04134 l -2.583822,6.68693 z" />
    <path
       inkscape:connector-curvature="0"
       id="path4607"
       style="font-style:normal;font-variant:normal;font-weight:normal;font-stretch:normal;font-size:10.58333302px;line-height:1.25;font-family:'Open Sans';-inkscape-font-specification:'Open Sans';letter-spacing:0px;word-spacing:0px;fill:#25282b;fill-opacity:1;stroke:none;stroke-width:0.26458332"
       d="m 76.194257,288.621 h -4.211629 v -7.55509 h 4.211629 v 0.78031 h -3.33313 v 2.43396 h 3.131592 v 0.77515 h -3.131592 v 2.78019 h 3.33313 z" />
    <g
       aria-label="Ideas for the crisis"
       style="font-style:normal;font-variant:normal;font-weight:normal;font-stretch:normal;font-size:7.92132425px;line-height:1.25;font-family:Roboto;-inkscape-font-specification:Roboto;letter-spacing:0px;word-spacing:0px;fill:#ff5d84;fill-opacity:1;stroke:none;stroke-width:0.19803311"
       id="text38">
      <path
         d="m 39.203899,289.73942 q 0.06188,0 0.119902,0.0657 0.05028,0.058 0.05028,0.12764 0,0.0967 -0.104431,0.26301 -0.05028,0.0812 -0.379048,0.53763 -1.539398,2.11957 -1.980331,3.82529 -0.05028,0.27461 -0.208863,0.27461 -0.08509,0 -0.150846,-0.0812 -0.06189,-0.0735 -0.06189,-0.16632 0,-0.19339 0.185656,-0.71555 0.425462,-1.20676 1.523927,-2.8854 0.448668,-0.68848 0.73102,-1.03271 0.181789,-0.21273 0.274617,-0.21273 z"
         style="font-style:normal;font-variant:normal;font-weight:bold;font-stretch:normal;font-family:'Freestyle Script';-inkscape-font-specification:'Freestyle Script Bold';fill:#ff5d84;fill-opacity:1;stroke-width:0.19803311"
         id="path826" />
      <path
         d="m 39.633228,292.41209 q 0.386784,-0.80838 0.731021,-1.40789 0.332634,-0.58018 0.452536,-0.73102 0.131507,-0.16632 0.247542,-0.16632 0.06189,0 0.112167,0.0503 0.04641,0.0503 0.04641,0.1083 0,0.089 -0.131506,0.29782 -0.560836,0.90508 -1.028844,1.83723 -0.541497,1.08686 -0.541497,1.62835 0,0.22047 0.08509,0.34811 0.01547,0.0271 0.139242,0.12377 0.02321,0.0193 0.02321,0.0774 0,0.0774 -0.06189,0.14311 -0.05802,0.0619 -0.131506,0.0619 -0.08896,0 -0.19726,-0.1083 -0.154713,-0.15471 -0.185656,-0.35584 -0.0116,-0.0851 -0.02708,-0.31716 -0.406122,0.73102 -0.773567,0.73102 -0.21273,0 -0.340369,-0.23981 -0.08509,-0.15858 -0.08509,-0.3597 0,-0.60339 0.440933,-1.2145 0.437065,-0.60339 0.939883,-0.60339 0.139242,0 0.28622,0.0967 z m -0.131506,0.31716 q -0.104432,-0.0696 -0.181788,-0.0696 -0.324898,0 -0.614986,0.39839 -0.382916,0.51829 -0.382916,1.00177 0,0.058 0.02321,0.1083 0.04641,0.0967 0.139242,0.0967 0.135375,0 0.328766,-0.26301 0.259145,-0.34811 0.479612,-0.82385 0.07736,-0.16245 0.150845,-0.3249 0,0 0.03481,-0.0735 z"
         style="font-style:normal;font-variant:normal;font-weight:bold;font-stretch:normal;font-family:'Freestyle Script';-inkscape-font-specification:'Freestyle Script Bold';fill:#ff5d84;fill-opacity:1;stroke-width:0.19803311"
         id="path828" />
      <path
         d="m 40.449341,293.92828 v 0.0696 q 0,0.0851 0.04255,0.14698 0.0967,0.14311 0.317163,0.14311 0.483479,0 1.117804,-0.74263 0.112167,-0.12763 0.189524,-0.12763 0.04255,0 0.07736,0.0425 0.02321,0.0309 0.02321,0.058 0,0.15085 -0.371312,0.51055 -0.290087,0.28236 -0.618853,0.46028 -0.328766,0.17792 -0.611118,0.17792 -0.290088,0 -0.456404,-0.20113 -0.112168,-0.13924 -0.112168,-0.37905 0,-0.65366 0.614986,-1.28025 0.498951,-0.51056 0.870263,-0.51056 0.100563,0 0.181788,0.0619 0.100564,0.0812 0.100564,0.21273 0,0.205 -0.189524,0.50282 -0.390652,0.61885 -1.175822,0.85479 z m 0.08509,-0.30169 q 0.270748,-0.0928 0.425461,-0.20886 0.270749,-0.20887 0.42933,-0.47188 0.05802,-0.0928 0.05802,-0.16632 0,-0.0774 -0.07349,-0.0774 -0.100564,0 -0.28622,0.15084 -0.332634,0.26688 -0.5531,0.77357 z"
         style="font-style:normal;font-variant:normal;font-weight:bold;font-stretch:normal;font-family:'Freestyle Script';-inkscape-font-specification:'Freestyle Script Bold';fill:#ff5d84;fill-opacity:1;stroke-width:0.19803311"
         id="path830" />
      <path
         d="m 43.466252,294.03271 q -0.127639,0.22434 -0.251409,0.37905 -0.243674,0.30169 -0.48348,0.30169 -0.208863,0 -0.324898,-0.19726 -0.07349,-0.12764 -0.07349,-0.30169 0,-0.42933 0.270749,-0.94762 0.301691,-0.57631 0.727153,-0.88573 0.278484,-0.20113 0.537629,-0.20113 0.162449,0 0.270748,0.10056 0.09283,0.089 0.09283,0.20113 0,0.0851 -0.06575,0.23594 0.05802,0.0812 0.05802,0.14311 0,0.0812 -0.108299,0.26688 -0.112167,0.18952 -0.224334,0.50282 -0.119903,0.33263 -0.119903,0.53376 0,0.16245 0.0967,0.26688 0.02707,0.0271 0.158581,0.089 0.0967,0.0464 0.0967,0.16245 0,0.0735 -0.05415,0.1199 -0.05802,0.0503 -0.135374,0.0503 -0.208863,0 -0.359709,-0.18565 -0.123771,-0.15085 -0.123771,-0.37905 0,-0.0774 0.01547,-0.25528 z m 0.483479,-1.27252 q -0.04641,-0.0851 -0.100564,-0.12377 -0.05415,-0.0425 -0.116035,-0.0425 -0.293955,0 -0.638192,0.51442 -0.379048,0.56857 -0.379048,0.96309 0,0.0967 0.03481,0.14698 0.03868,0.0503 0.112168,0.0503 0.185656,0 0.433197,-0.39452 0.139242,-0.2166 0.344237,-0.63819 0.135375,-0.27462 0.19726,-0.36358 0.03094,-0.0464 0.112167,-0.11217 z"
         style="font-style:normal;font-variant:normal;font-weight:bold;font-stretch:normal;font-family:'Freestyle Script';-inkscape-font-specification:'Freestyle Script Bold';fill:#ff5d84;fill-opacity:1;stroke-width:0.19803311"
         id="path832" />
      <path
         d="m 46.162132,292.10266 q 0.239806,0 0.359709,0.0851 0.119903,0.0851 0.119903,0.25915 0,0.2282 -0.170185,0.44093 -0.162449,0.20113 -0.487347,0.3249 -0.177921,0.0657 -0.297823,0.0657 -0.162449,0 -0.162449,-0.14311 0,-0.0967 0.09283,-0.14697 0.02321,-0.0116 0.263012,-0.0658 0.14311,-0.0309 0.263013,-0.13537 0.104432,-0.089 0.104432,-0.19339 0,-0.0812 -0.04641,-0.11991 -0.04641,-0.0387 -0.139242,-0.0387 -0.224335,0 -0.495083,0.18178 -0.313295,0.205 -0.313295,0.48735 0,0.20113 0.204995,0.50282 0.228203,0.32877 0.228203,0.55697 0,0.34037 -0.301691,0.53376 -0.185657,0.1199 -0.421594,0.1199 -0.371312,0 -0.564704,-0.26688 -0.135374,-0.18952 -0.135374,-0.44867 0,-0.30169 0.154713,-0.50668 0.100564,-0.13538 0.208863,-0.13538 0.0967,0 0.0967,0.0774 0,0.0309 -0.03481,0.0928 -0.08896,0.16631 -0.08896,0.39065 0,0.18952 0.135374,0.32103 0.119903,0.11603 0.274617,0.11603 0.150845,0 0.235938,-0.10056 0.06962,-0.0851 0.06962,-0.2166 0,-0.16245 -0.185657,-0.42159 -0.255277,-0.35584 -0.255277,-0.64593 0,-0.38678 0.421594,-0.68461 0.409991,-0.28622 0.866395,-0.28622 z"
         style="font-style:normal;font-variant:normal;font-weight:bold;font-stretch:normal;font-family:'Freestyle Script';-inkscape-font-specification:'Freestyle Script Bold';fill:#ff5d84;fill-opacity:1;stroke-width:0.19803311"
         id="path834" />
      <path
         d="m 49.016594,292.84529 q 0.591778,-1.27639 1.156482,-2.07703 0.382916,-0.5415 0.634325,-0.78904 0.174052,-0.17405 0.297823,-0.17405 0.04641,0 0.08123,0.0309 0.05415,0.0387 0.05415,0.10443 0,0.0851 -0.135374,0.24368 -0.854791,0.97469 -1.547133,2.33617 0.618853,-0.23594 0.862527,-0.23594 0.17792,0 0.293955,0.089 0.119903,0.0928 0.119903,0.21273 0,0.0619 -0.04255,0.11217 -0.05802,0.0735 -0.150846,0.0735 -0.06575,0 -0.259145,-0.1083 -0.05415,-0.0271 -0.139242,-0.0271 -0.386783,0 -0.92828,0.35198 0.23207,0.1083 0.328766,0.28622 0.131506,0.25141 0.131506,0.61885 0,0.94762 -0.564704,1.99967 -0.243673,0.44867 -0.471875,0.68074 -0.243674,0.25141 -0.498951,0.25141 -0.193392,0 -0.313294,-0.18566 -0.0967,-0.15471 -0.0967,-0.42159 0,-0.57244 0.433197,-1.72119 0.05415,-0.13924 0.309427,-0.71555 0.06575,-0.14311 0.127638,-0.30556 -0.03094,0.008 -0.05802,0.008 -0.104432,0 -0.104432,-0.11604 0,-0.20499 0.479612,-0.52215 z m 0.131506,0.50668 q -0.216599,0.40999 -0.572439,1.3228 -0.367445,0.93215 -0.367445,1.44657 0,0.10057 0.05028,0.17792 0.05415,0.0774 0.127639,0.0774 0.239806,0 0.630457,-0.80451 0.440933,-0.89734 0.440933,-1.64383 0,-0.29009 -0.112167,-0.43707 -0.04255,-0.058 -0.19726,-0.13924 z"
         style="font-style:normal;font-variant:normal;font-weight:bold;font-stretch:normal;font-family:'Freestyle Script';-inkscape-font-specification:'Freestyle Script Bold';fill:#ff5d84;fill-opacity:1;stroke-width:0.19803311"
         id="path836" />
      <path
         d="m 51.89813,292.17615 q 0.317162,0 0.317162,0.38678 0,0.51443 -0.475743,1.30346 -0.51829,0.8548 -1.001769,0.8548 -0.224335,0 -0.328766,-0.20887 -0.05415,-0.10443 -0.05415,-0.25141 0,-0.49508 0.34037,-1.07525 0.317162,-0.53763 0.746492,-0.83546 0.251409,-0.17405 0.456404,-0.17405 z m -0.402255,1.46204 q -0.0967,-0.0774 -0.0967,-0.1199 0,-0.0309 0.123771,-0.17019 0.348105,-0.39065 0.348105,-0.63045 0,-0.0309 -0.01934,-0.0619 -0.03094,-0.058 -0.0967,-0.058 -0.123771,0 -0.363576,0.2398 -0.309427,0.30943 -0.471876,0.63819 -0.189524,0.37518 -0.189524,0.62272 0,0.0658 0.03481,0.11604 0.05028,0.0696 0.127638,0.0696 0.185656,0 0.398387,-0.27848 0.09283,-0.11604 0.150846,-0.23981 0.05802,-0.12377 0.05415,-0.12764 z"
         style="font-style:normal;font-variant:normal;font-weight:bold;font-stretch:normal;font-family:'Freestyle Script';-inkscape-font-specification:'Freestyle Script Bold';fill:#ff5d84;fill-opacity:1;stroke-width:0.19803311"
         id="path838" />
      <path
         d="m 52.950181,293.39839 q 0.379048,-0.40613 0.874131,-0.79291 0.17792,-0.13924 0.379047,-0.25914 0.100564,-0.058 0.127639,-0.058 0.05802,0 0.116035,0.0851 0.03481,0.0464 0.03481,0.0851 0,0.0696 -0.146977,0.18953 -0.394519,0.31329 -0.394519,0.47187 0,0.089 0.100563,0.089 0.166317,0 0.57244,-0.27461 0.06962,-0.0464 0.116035,-0.0464 0.03094,0 0.06188,0.031 0.03481,0.0348 0.03481,0.0735 0,0.11604 -0.324898,0.35584 -0.34037,0.25528 -0.645929,0.25528 -0.12377,0 -0.228202,-0.0658 -0.08896,-0.0541 -0.08896,-0.19339 0,-0.0967 0.08122,-0.22047 -0.305559,0.2166 -0.719417,0.74262 -0.239806,0.3249 -0.475743,0.80065 -0.08896,0.17792 -0.220467,0.17792 -0.14311,0 -0.14311,-0.13538 0,-0.1315 0.224335,-0.70394 0.332633,-0.85093 0.69621,-1.31893 0.224334,-0.29009 0.37518,-0.29009 0.05028,0 0.09283,0.0309 0.05028,0.0387 0.05028,0.0967 0,0.058 -0.07736,0.16245 -0.01547,0.0193 -0.204995,0.25914 -0.174053,0.2282 -0.266881,0.45254 z"
         style="font-style:normal;font-variant:normal;font-weight:bold;font-stretch:normal;font-family:'Freestyle Script';-inkscape-font-specification:'Freestyle Script Bold';fill:#ff5d84;fill-opacity:1;stroke-width:0.19803311"
         id="path840" />
      <path
         d="m 58.071193,292.18002 q -0.251409,0.39065 -0.46414,0.87413 -0.305559,0.68847 -0.305559,1.02884 0,0.0967 0.03868,0.14698 0.04255,0.0503 0.123771,0.0503 0.193392,0 0.468008,-0.36357 0.174052,-0.22434 0.309427,-0.44867 0.07349,-0.12764 0.158581,-0.12764 0.05028,0 0.08509,0.0348 0.03094,0.0348 0.03094,0.0696 0,0.14311 -0.37518,0.63819 -0.448669,0.59565 -0.819981,0.59565 -0.197259,0 -0.328766,-0.18179 -0.08122,-0.11603 -0.08122,-0.32876 0,-0.46801 0.270748,-1.09073 0.06575,-0.15472 0.363576,-0.7465 -0.104431,0.0271 -0.158581,0.0271 -0.08122,0 -0.14311,-0.0387 -0.08509,-0.0541 -0.08509,-0.13537 0,-0.0967 0.112167,-0.15472 0.03094,-0.0155 0.28622,-0.0503 0.09283,-0.0155 0.270748,-0.0735 0.135375,-0.24367 0.440933,-0.6614 0.170185,-0.23207 0.235938,-0.30169 0.09283,-0.0967 0.162449,-0.0967 0.05028,0 0.100564,0.0541 0.04641,0.0503 0.04641,0.10056 0,0.10056 -0.216599,0.39839 -0.14311,0.19339 -0.212731,0.31329 0.42933,-0.11603 0.614986,-0.11603 0.212731,0 0.212731,0.17792 0,0.089 -0.07349,0.1315 -0.03868,0.0232 -0.201127,0.0387 -0.06575,-0.004 -0.584043,0.14698 -0.14311,0.0425 -0.282352,0.089 z"
         style="font-style:normal;font-variant:normal;font-weight:bold;font-stretch:normal;font-family:'Freestyle Script';-inkscape-font-specification:'Freestyle Script Bold';fill:#ff5d84;fill-opacity:1;stroke-width:0.19803311"
         id="path842" />
      <path
         d="m 59.529367,293.08896 q 0.28622,-0.29782 0.57244,-0.49895 0.367444,-0.25528 0.526025,-0.25528 0.06575,0 0.127639,0.0541 0.06962,0.0619 0.06962,0.14311 0,0.10443 -0.166317,0.3249 -0.32103,0.42546 -0.487347,0.77357 -0.146978,0.30169 -0.146978,0.40999 0,0.10443 0.100564,0.10443 0.208863,0 0.703946,-0.74263 0.100563,-0.15084 0.181788,-0.15084 0.08122,0 0.08122,0.0928 0,0.15084 -0.293955,0.5763 -0.255277,0.37132 -0.533761,0.56858 -0.19726,0.13537 -0.355841,0.13537 -0.166317,0 -0.239806,-0.14311 -0.04641,-0.089 -0.04641,-0.19726 0,-0.34424 0.243674,-0.78517 0.05802,-0.10443 0.348105,-0.59565 -0.789038,0.39839 -1.334403,1.72119 -0.05028,0.15085 -0.154713,0.15085 -0.07349,0 -0.119903,-0.0503 -0.04641,-0.0541 -0.04641,-0.1315 0,-0.12764 0.247541,-0.72329 0.460273,-1.1062 0.858659,-1.87203 0.398387,-0.77357 0.885734,-1.60515 0.116036,-0.20113 0.181789,-0.27075 0.06575,-0.0696 0.139242,-0.0696 0.06962,0 0.119903,0.0735 0.03868,0.0541 0.03868,0.12377 0,0.1083 -0.123771,0.29009 -0.417726,0.64593 -0.831584,1.41949 -0.444801,0.82772 -0.545365,1.12941 z"
         style="font-style:normal;font-variant:normal;font-weight:bold;font-stretch:normal;font-family:'Freestyle Script';-inkscape-font-specification:'Freestyle Script Bold';fill:#ff5d84;fill-opacity:1;stroke-width:0.19803311"
         id="path844" />
      <path
         d="m 61.366587,293.92828 v 0.0696 q 0,0.0851 0.04255,0.14698 0.0967,0.14311 0.317163,0.14311 0.483479,0 1.117804,-0.74263 0.112167,-0.12763 0.189524,-0.12763 0.04255,0 0.07736,0.0425 0.02321,0.0309 0.02321,0.058 0,0.15085 -0.371312,0.51055 -0.290087,0.28236 -0.618853,0.46028 -0.328766,0.17792 -0.611118,0.17792 -0.290088,0 -0.456405,-0.20113 -0.112167,-0.13924 -0.112167,-0.37905 0,-0.65366 0.614986,-1.28025 0.498951,-0.51056 0.870263,-0.51056 0.100563,0 0.181788,0.0619 0.100563,0.0812 0.100563,0.21273 0,0.205 -0.189523,0.50282 -0.390652,0.61885 -1.175822,0.85479 z m 0.08509,-0.30169 q 0.270749,-0.0928 0.425462,-0.20886 0.270749,-0.20887 0.42933,-0.47188 0.05802,-0.0928 0.05802,-0.16632 0,-0.0774 -0.07349,-0.0774 -0.100563,0 -0.286219,0.15084 -0.332634,0.26688 -0.553101,0.77357 z"
         style="font-style:normal;font-variant:normal;font-weight:bold;font-stretch:normal;font-family:'Freestyle Script';-inkscape-font-specification:'Freestyle Script Bold';fill:#ff5d84;fill-opacity:1;stroke-width:0.19803311"
         id="path846" />
      <path
         d="m 66.626843,292.27285 q 0.305559,0 0.305559,0.32103 0,0.28235 -0.220467,0.56857 -0.170185,0.2166 -0.297823,0.2166 -0.108299,0 -0.108299,-0.12377 0,-0.0658 0.03094,-0.10443 0.0116,-0.0155 0.09283,-0.089 0.06962,-0.0658 0.14311,-0.19726 0.05028,-0.089 0.05028,-0.14311 0,-0.0619 -0.06962,-0.0619 -0.08123,0 -0.247541,0.12764 -0.263013,0.20499 -0.526026,0.64206 -0.270748,0.4564 -0.270748,0.71942 0,0.0851 0.05028,0.15084 0.07349,0.10057 0.197259,0.10057 0.243674,0 0.576307,-0.3017 0.282352,-0.25914 0.475744,-0.51829 0.100564,-0.1431 0.174053,-0.1431 0.04255,0 0.07736,0.0387 0.03094,0.0387 0.03094,0.0774 0,0.14311 -0.367444,0.55697 -0.584043,0.64979 -1.059787,0.64979 -0.28622,0 -0.437065,-0.20499 -0.1083,-0.15085 -0.1083,-0.35584 0,-0.40226 0.332634,-0.93215 0.32103,-0.50669 0.742624,-0.81611 0.247542,-0.17792 0.433198,-0.17792 z"
         style="font-style:normal;font-variant:normal;font-weight:bold;font-stretch:normal;font-family:'Freestyle Script';-inkscape-font-specification:'Freestyle Script Bold';fill:#ff5d84;fill-opacity:1;stroke-width:0.19803311"
         id="path848" />
      <path
         d="m 68.09662,293.39839 q 0.379047,-0.40613 0.87413,-0.79291 0.177921,-0.13924 0.379048,-0.25914 0.100564,-0.058 0.127638,-0.058 0.05802,0 0.116035,0.0851 0.03481,0.0464 0.03481,0.0851 0,0.0696 -0.146978,0.18953 -0.394519,0.31329 -0.394519,0.47187 0,0.089 0.100564,0.089 0.166317,0 0.572439,-0.27461 0.06962,-0.0464 0.116035,-0.0464 0.03094,0 0.06189,0.031 0.03481,0.0348 0.03481,0.0735 0,0.11604 -0.324898,0.35584 -0.340369,0.25528 -0.645928,0.25528 -0.123771,0 -0.228202,-0.0658 -0.08896,-0.0541 -0.08896,-0.19339 0,-0.0967 0.08123,-0.22047 -0.305559,0.2166 -0.719417,0.74262 -0.239806,0.3249 -0.475744,0.80065 -0.08896,0.17792 -0.220466,0.17792 -0.14311,0 -0.14311,-0.13538 0,-0.1315 0.224334,-0.70394 0.332634,-0.85093 0.69621,-1.31893 0.224335,-0.29009 0.37518,-0.29009 0.05028,0 0.09283,0.0309 0.05028,0.0387 0.05028,0.0967 0,0.058 -0.07736,0.16245 -0.01547,0.0193 -0.204995,0.25914 -0.174052,0.2282 -0.26688,0.45254 z"
         style="font-style:normal;font-variant:normal;font-weight:bold;font-stretch:normal;font-family:'Freestyle Script';-inkscape-font-specification:'Freestyle Script Bold';fill:#ff5d84;fill-opacity:1;stroke-width:0.19803311"
         id="path850" />
      <path
         d="m 70.835047,292.35407 q 0.06575,0 0.1083,0.0503 0.03094,0.0426 0.03094,0.0851 0,0.0696 -0.112167,0.23207 -0.402255,0.62272 -0.572439,1.02497 -0.181789,0.41386 -0.321031,0.85093 -0.06189,0.19339 -0.193391,0.19339 -0.07736,0 -0.123771,-0.0619 -0.04255,-0.0503 -0.04255,-0.1083 0,-0.11603 0.247541,-0.77356 0.193392,-0.51829 0.626589,-1.14488 0.139242,-0.205 0.208863,-0.27462 0.06962,-0.0735 0.14311,-0.0735 z m 0.734889,-1.43496 q 0.174052,0 0.174052,0.17792 0,0.16244 -0.170184,0.3597 -0.162449,0.18953 -0.313295,0.18953 -0.07349,0 -0.119903,-0.0541 -0.04641,-0.0503 -0.04641,-0.12377 0,-0.18566 0.204995,-0.39452 0.150846,-0.15471 0.270749,-0.15471 z"
         style="font-style:normal;font-variant:normal;font-weight:bold;font-stretch:normal;font-family:'Freestyle Script';-inkscape-font-specification:'Freestyle Script Bold';fill:#ff5d84;fill-opacity:1;stroke-width:0.19803311"
         id="path852" />
      <path
         d="m 72.649058,292.10266 q 0.239806,0 0.359709,0.0851 0.119903,0.0851 0.119903,0.25915 0,0.2282 -0.170185,0.44093 -0.162449,0.20113 -0.487347,0.3249 -0.17792,0.0657 -0.297823,0.0657 -0.162449,0 -0.162449,-0.14311 0,-0.0967 0.09283,-0.14697 0.02321,-0.0116 0.263012,-0.0658 0.14311,-0.0309 0.263013,-0.13537 0.104432,-0.089 0.104432,-0.19339 0,-0.0812 -0.04641,-0.11991 -0.04641,-0.0387 -0.139242,-0.0387 -0.224335,0 -0.495083,0.18178 -0.313295,0.205 -0.313295,0.48735 0,0.20113 0.204995,0.50282 0.228203,0.32877 0.228203,0.55697 0,0.34037 -0.301691,0.53376 -0.185656,0.1199 -0.421594,0.1199 -0.371312,0 -0.564704,-0.26688 -0.135374,-0.18952 -0.135374,-0.44867 0,-0.30169 0.154713,-0.50668 0.100564,-0.13538 0.208863,-0.13538 0.0967,0 0.0967,0.0774 0,0.0309 -0.03481,0.0928 -0.08896,0.16631 -0.08896,0.39065 0,0.18952 0.135374,0.32103 0.119903,0.11603 0.274617,0.11603 0.150845,0 0.235938,-0.10056 0.06962,-0.0851 0.06962,-0.2166 0,-0.16245 -0.185656,-0.42159 -0.255277,-0.35584 -0.255277,-0.64593 0,-0.38678 0.421593,-0.68461 0.409991,-0.28622 0.866395,-0.28622 z"
         style="font-style:normal;font-variant:normal;font-weight:bold;font-stretch:normal;font-family:'Freestyle Script';-inkscape-font-specification:'Freestyle Script Bold';fill:#ff5d84;fill-opacity:1;stroke-width:0.19803311"
         id="path854" />
      <path
         d="m 73.898371,292.35407 q 0.06575,0 0.1083,0.0503 0.03094,0.0426 0.03094,0.0851 0,0.0696 -0.112167,0.23207 -0.402255,0.62272 -0.572439,1.02497 -0.181789,0.41386 -0.321031,0.85093 -0.06189,0.19339 -0.193391,0.19339 -0.07736,0 -0.123771,-0.0619 -0.04255,-0.0503 -0.04255,-0.1083 0,-0.11603 0.247541,-0.77356 0.193392,-0.51829 0.626589,-1.14488 0.139242,-0.205 0.208863,-0.27462 0.06962,-0.0735 0.14311,-0.0735 z m 0.734889,-1.43496 q 0.174052,0 0.174052,0.17792 0,0.16244 -0.170184,0.3597 -0.16245,0.18953 -0.313295,0.18953 -0.07349,0 -0.119903,-0.0541 -0.04641,-0.0503 -0.04641,-0.12377 0,-0.18566 0.204995,-0.39452 0.150846,-0.15471 0.270749,-0.15471 z"
         style="font-style:normal;font-variant:normal;font-weight:bold;font-stretch:normal;font-family:'Freestyle Script';-inkscape-font-specification:'Freestyle Script Bold';fill:#ff5d84;fill-opacity:1;stroke-width:0.19803311"
         id="path856" />
      <path
         d="m 75.712386,292.10266 q 0.239806,0 0.359709,0.0851 0.119902,0.0851 0.119902,0.25915 0,0.2282 -0.170184,0.44093 -0.162449,0.20113 -0.487347,0.3249 -0.177921,0.0657 -0.297824,0.0657 -0.162449,0 -0.162449,-0.14311 0,-0.0967 0.09283,-0.14697 0.02321,-0.0116 0.263013,-0.0658 0.14311,-0.0309 0.263013,-0.13537 0.104431,-0.089 0.104431,-0.19339 0,-0.0812 -0.04641,-0.11991 -0.04641,-0.0387 -0.139242,-0.0387 -0.224334,0 -0.495082,0.18178 -0.313295,0.205 -0.313295,0.48735 0,0.20113 0.204995,0.50282 0.228202,0.32877 0.228202,0.55697 0,0.34037 -0.301691,0.53376 -0.185656,0.1199 -0.421594,0.1199 -0.371312,0 -0.564703,-0.26688 -0.135374,-0.18952 -0.135374,-0.44867 0,-0.30169 0.154713,-0.50668 0.100564,-0.13538 0.208863,-0.13538 0.0967,0 0.0967,0.0774 0,0.0309 -0.03481,0.0928 -0.08896,0.16631 -0.08896,0.39065 0,0.18952 0.135374,0.32103 0.119903,0.11603 0.274616,0.11603 0.150846,0 0.235938,-0.10056 0.06962,-0.0851 0.06962,-0.2166 0,-0.16245 -0.185656,-0.42159 -0.255277,-0.35584 -0.255277,-0.64593 0,-0.38678 0.421594,-0.68461 0.409991,-0.28622 0.866395,-0.28622 z"
         style="font-style:normal;font-variant:normal;font-weight:bold;font-stretch:normal;font-family:'Freestyle Script';-inkscape-font-specification:'Freestyle Script Bold';fill:#ff5d84;fill-opacity:1;stroke-width:0.19803311"
         id="path858" />
    </g>
  </g>
</svg>
