<?xml version="1.0" encoding="UTF-8" standalone="no"?>
<!-- Created with Inkscape (http://www.inkscape.org/) -->

<svg
   xmlns:dc="http://purl.org/dc/elements/1.1/"
   xmlns:cc="http://creativecommons.org/ns#"
   xmlns:rdf="http://www.w3.org/1999/02/22-rdf-syntax-ns#"
   xmlns:svg="http://www.w3.org/2000/svg"
   xmlns="http://www.w3.org/2000/svg"
   xmlns:sodipodi="http://sodipodi.sourceforge.net/DTD/sodipodi-0.dtd"
   xmlns:inkscape="http://www.inkscape.org/namespaces/inkscape"
   width="299"
   height="64"
   viewBox="0 0 79.110415 16.933334"
   version="1.1"
   id="svg8"
   inkscape:version="0.92.4 (5da689c313, 2019-01-14)"
   sodipodi:docname="logo.svg">
  <defs
     id="defs2" />
  <sodipodi:namedview
     id="base"
     pagecolor="#ffffff"
     bordercolor="#666666"
     borderopacity="1.0"
     inkscape:pageopacity="0.0"
     inkscape:pageshadow="2"
     inkscape:zoom="2.8284272"
     inkscape:cx="140.56612"
     inkscape:cy="24.781583"
     inkscape:document-units="mm"
     inkscape:current-layer="layer1"
     showgrid="false"
     units="px"
     inkscape:window-width="1920"
     inkscape:window-height="1017"
     inkscape:window-x="-8"
     inkscape:window-y="-8"
     inkscape:window-maximized="1" />
  <metadata
     id="metadata5">
    <rdf:RDF>
      <cc:Work
         rdf:about="">
        <dc:format>image/svg+xml</dc:format>
        <dc:type
           rdf:resource="http://purl.org/dc/dcmitype/StillImage" />
        <dc:title />
      </cc:Work>
    </rdf:RDF>
  </metadata>
  <g
     inkscape:label="Camada 1"
     inkscape:groupmode="layer"
     id="layer1"
     transform="translate(0,-280.06665)">
    <path
       inkscape:connector-curvature="0"
       id="path4585"
       style="font-style:normal;font-variant:normal;font-weight:normal;font-stretch:normal;font-size:10.58333302px;line-height:1.25;font-family:'Open Sans Light';-inkscape-font-specification:'Open Sans Light, ';letter-spacing:0px;word-spacing:0px;fill:#535b61;fill-opacity:1;stroke:none;stroke-width:0.26458332"
       d="m 4.4001919,281.43281 q -1.4211018,0 -2.2375894,0.90951 -0.8164876,0.9095 -0.8164876,2.4908 0,1.61747 0.7699788,2.51147 0.7699788,0.89401 2.201416,0.89401 0.9508463,0 1.7466633,-0.24288 v 0.46509 q -0.7493082,0.26355 -1.8706868,0.26355 -1.591634,0 -2.5063069,-1.02837 -0.91467279,-1.02836 -0.91467279,-2.87321 0,-1.15238 0.43408199,-2.03088 0.4392497,-0.8785 1.2557373,-1.35392 0.8216552,-0.48059 1.9068603,-0.48059 1.1058756,0 1.9792073,0.41341 L 6.13652,281.84622 q -0.8268229,-0.41341 -1.7363281,-0.41341 z" />
    <path
       inkscape:connector-curvature="0"
       id="path4587"
       style="font-style:normal;font-variant:normal;font-weight:normal;font-stretch:normal;font-size:10.58333302px;line-height:1.25;font-family:'Open Sans Light';-inkscape-font-specification:'Open Sans Light, ';letter-spacing:0px;word-spacing:0px;fill:#535b61;fill-opacity:1;stroke:none;stroke-width:0.26458332"
       d="M 8.2759244,285.32921 V 288.621 H 7.7488249 v -7.55509 h 1.7983397 q 1.4055994,0 2.0773924,0.52193 0.671794,0.51676 0.671794,1.56063 0,0.75964 -0.403076,1.28157 -0.397909,0.52194 -1.214397,0.74931 l 2.051555,3.44165 H 12.09998 l -1.948201,-3.29179 z m 0,-0.45475 h 1.4417725 q 0.9560141,0 1.4831131,-0.42375 0.5271,-0.42891 0.5271,-1.2609 0,-0.863 -0.516764,-1.25574 -0.516765,-0.39274 -1.6846519,-0.39274 H 8.2759244 Z" />
    <path
       inkscape:connector-curvature="0"
       id="path4589"
       style="font-style:normal;font-variant:normal;font-weight:normal;font-stretch:normal;font-size:10.58333302px;line-height:1.25;font-family:'Open Sans Light';-inkscape-font-specification:'Open Sans Light, ';letter-spacing:0px;word-spacing:0px;fill:#535b61;fill-opacity:1;stroke:none;stroke-width:0.26458332"
       d="m 18.161625,288.621 h -4.128947 v -7.55509 h 4.128947 v 0.48576 h -3.601847 v 2.8577 h 3.400309 v 0.48576 h -3.400309 v 3.24011 h 3.601847 z" />
    <path
       inkscape:connector-curvature="0"
       id="path4591"
       style="font-style:normal;font-variant:normal;font-weight:normal;font-stretch:normal;font-size:10.58333302px;line-height:1.25;font-family:'Open Sans Light';-inkscape-font-specification:'Open Sans Light, ';letter-spacing:0px;word-spacing:0px;fill:#535b61;fill-opacity:1;stroke:none;stroke-width:0.26458332"
       d="m 23.520471,285.9545 h -3.06958 l -1.0542,2.6665 h -0.583943 l 3.038574,-7.5861 h 0.335897 l 2.976562,7.5861 h -0.594279 z m -2.878378,-0.47542 h 2.702678 l -1.028361,-2.72335 q -0.129191,-0.3204 -0.310059,-0.88884 -0.139526,0.4961 -0.304891,0.89917 z" />
    <path
       inkscape:connector-curvature="0"
       id="path4593"
       style="font-style:normal;font-variant:normal;font-weight:normal;font-stretch:normal;font-size:10.58333302px;line-height:1.25;font-family:'Open Sans Light';-inkscape-font-specification:'Open Sans Light, ';letter-spacing:0px;word-spacing:0px;fill:#535b61;fill-opacity:1;stroke:none;stroke-width:0.26458332"
       d="m 28.197189,288.621 h -0.532267 v -7.059 h -2.454631 v -0.49609 h 5.441529 v 0.49609 h -2.454631 z" />
    <path
       inkscape:connector-curvature="0"
       id="path4595"
       style="font-style:normal;font-variant:normal;font-weight:normal;font-stretch:normal;font-size:10.58333302px;line-height:1.25;font-family:'Open Sans Light';-inkscape-font-specification:'Open Sans Light, ';letter-spacing:0px;word-spacing:0px;fill:#535b61;fill-opacity:1;stroke:none;stroke-width:0.26458332"
       d="m 31.76803,288.621 v -7.55509 h 0.5271 v 7.55509 z" />
    <path
       inkscape:connector-curvature="0"
       id="path4597"
       style="font-style:normal;font-variant:normal;font-weight:normal;font-stretch:normal;font-size:10.58333302px;line-height:1.25;font-family:'Open Sans Light';-inkscape-font-specification:'Open Sans Light, ';letter-spacing:0px;word-spacing:0px;fill:#535b61;fill-opacity:1;stroke:none;stroke-width:0.26458332"
       d="m 38.899376,281.06591 h 0.573608 l -2.826701,7.55509 h -0.465088 l -2.816365,-7.55509 h 0.563273 l 1.901693,5.1418 q 0.434082,1.16272 0.583943,1.74667 0.103353,-0.38758 0.408244,-1.20406 z" />
    <path
       inkscape:connector-curvature="0"
       id="path4599"
       style="font-style:normal;font-variant:normal;font-weight:normal;font-stretch:normal;font-size:10.58333302px;line-height:1.25;font-family:'Open Sans Light';-inkscape-font-specification:'Open Sans Light, ';letter-spacing:0px;word-spacing:0px;fill:#535b61;fill-opacity:1;stroke:none;stroke-width:0.26458332"
       d="m 44.681971,288.621 h -4.128947 v -7.55509 h 4.128947 v 0.48576 h -3.601847 v 2.8577 h 3.400309 v 0.48576 h -3.400309 v 3.24011 h 3.601847 z" />
    <path
       inkscape:connector-curvature="0"
       id="path4601"
       style="font-style:normal;font-variant:normal;font-weight:normal;font-stretch:normal;font-size:10.58333302px;line-height:1.25;font-family:'Open Sans';-inkscape-font-specification:'Open Sans';letter-spacing:0px;word-spacing:0px;fill:#25282b;fill-opacity:1;stroke:none;stroke-width:0.26458332"
       d="m 52.107872,288.621 h -0.8785 v -3.55534 h -3.979085 v 3.55534 h -0.878499 v -7.55509 h 0.878499 v 3.21427 h 3.979085 v -3.21427 h 0.8785 z" />
    <path
       inkscape:connector-curvature="0"
       id="path4603"
       style="font-style:normal;font-variant:normal;font-weight:normal;font-stretch:normal;font-size:10.58333302px;line-height:1.25;font-family:'Open Sans';-inkscape-font-specification:'Open Sans';letter-spacing:0px;word-spacing:0px;fill:#25282b;fill-opacity:1;stroke:none;stroke-width:0.26458332"
       d="m 60.743003,284.83312 q 0,1.81384 -0.91984,2.85254 -0.914673,1.0387 -2.547648,1.0387 -1.669149,0 -2.578654,-1.01803 -0.904338,-1.02319 -0.904338,-2.88355 0,-1.84484 0.909506,-2.8577 0.909505,-1.01803 2.583821,-1.01803 1.627808,0 2.542481,1.03353 0.914672,1.03353 0.914672,2.85254 z m -6.020304,0 q 0,1.53479 0.651123,2.33061 0.656291,0.79065 1.901693,0.79065 1.255737,0 1.896525,-0.79065 0.640788,-0.79065 0.640788,-2.33061 0,-1.52445 -0.640788,-2.30994 -0.63562,-0.79065 -1.88619,-0.79065 -1.255737,0 -1.912028,0.79582 -0.651123,0.79065 -0.651123,2.30477 z" />
    <path
       inkscape:connector-curvature="0"
       id="path4605"
       style="font-style:normal;font-variant:normal;font-weight:normal;font-stretch:normal;font-size:10.58333302px;line-height:1.25;font-family:'Open Sans';-inkscape-font-specification:'Open Sans';letter-spacing:0px;word-spacing:0px;fill:#25282b;fill-opacity:1;stroke:none;stroke-width:0.26458332"
       d="m 65.776288,288.621 -2.563151,-6.69726 h -0.04134 q 0.07235,0.79581 0.07235,1.89135 v 4.80591 h -0.81132 v -7.55509 h 1.322917 l 2.392618,6.23218 h 0.04134 l 2.41329,-6.23218 h 1.312581 v 7.55509 h -0.878499 v -4.86792 q 0,-0.83716 0.07235,-1.81901 h -0.04134 l -2.583822,6.68693 z" />
    <path
       inkscape:connector-curvature="0"
       id="path4607"
       style="font-style:normal;font-variant:normal;font-weight:normal;font-stretch:normal;font-size:10.58333302px;line-height:1.25;font-family:'Open Sans';-inkscape-font-specification:'Open Sans';letter-spacing:0px;word-spacing:0px;fill:#25282b;fill-opacity:1;stroke:none;stroke-width:0.26458332"
       d="m 76.194257,288.621 h -4.211629 v -7.55509 h 4.211629 v 0.78031 h -3.33313 v 2.43396 h 3.131592 v 0.77515 h -3.131592 v 2.78019 h 3.33313 z" />
    <text
       xml:space="preserve"
       style="font-style:normal;font-variant:normal;font-weight:normal;font-stretch:normal;font-size:7.92132425px;line-height:1.25;font-family:Roboto;-inkscape-font-specification:Roboto;letter-spacing:0px;word-spacing:0px;fill:#ff5d84;fill-opacity:1;stroke:none;stroke-width:0.19803311"
       x="36.50415"
       y="294.9726"
       id="text38"><tspan
         sodipodi:role="line"
         id="tspan36"
         x="36.50415"
         y="294.9726"
         style="font-style:normal;font-variant:normal;font-weight:bold;font-stretch:normal;font-family:'Freestyle Script';-inkscape-font-specification:'Freestyle Script Bold';fill:#ff5d84;fill-opacity:1;stroke-width:0.19803311">Ideas for the crisis</tspan></text>
  </g>
</svg>
